<svg xmlns="http://www.w3.org/2000/svg" viewBox="0 0 100 100" style="enable-background:new 0 0 100 100" xml:space="preserve"><circle cx="50.7" cy="12.7" r="8"/><circle cx="74.7" cy="12.9" r="8"/><path d="M64.3 23.7c-1-.5-4.4-1-13.5-1s-12.6.7-13.5 1c-1 .3-2.2 1-2.2 2.2l1.6 30.8c0 1.2 1 2.2 2.2 2.2H41l1.4 35.3h7.3V63.8c0-.6.5-1.1 1.1-1.1.6 0 1.1.5 1.1 1.1v30.5h7.8L60.8 59h2c1.2 0 2.2-1 2.2-2.2L66.5 26c0-1.3-1.2-1.8-2.2-2.3zm24.2.2s-4.4-1-13.5-1c-1.7 0-3.3 0-4.7.1l-.4 7s-1.7 27.3-1.8 28.4c-.1 1.1-.6 2-1.1 2.2-.4.2-1.3.1-1.5.2-.2.1 1.5 31.1 1.5 31.1h6.8V64c0-.7.6-1.2 1.2-1.2.7 0 1.2.6 1.2 1.2v27.9h7.2L84.8 58h2.1c1.2 0 2.2-1 2.2-2.2l1.6-29.7c0-1.2-1-2.2-2.2-2.2z"/><circle cx="27.1" cy="12.9" r="8"/><path d="M34.8 60.6c-.4-.2-1-1.1-1.1-2.2C33.7 57.3 32 30 32 30l-.4-7c-1.4-.1-3-.1-4.7-.1-9.1 0-13.5 1-13.5 1-1.2 0-2.2 1-2.2 2.2l1.6 29.7c0 1.2 1 2.2 2.2 2.2h2l1.4 33.9h7.2V64c0-.7.6-1.2 1.2-1.2.7 0 1.2.6 1.2 1.2v27.9h6.8s1.7-30.9 1.5-31.1c-.2-.1-1 0-1.5-.2z"/><text y="115" font-size="5" font-weight="bold" font-family="'Helvetica Neue', Helvetica, Arial-Unicode, Arial, Sans-serif">Created by Ignat</text><text y="120" font-size="5" font-weight="bold" font-family="'Helvetica Neue', Helvetica, Arial-Unicode, Arial, Sans-serif">from the Noun Project</text></svg>