<svg xmlns="http://www.w3.org/2000/svg" xmlns:xlink="http://www.w3.org/1999/xlink" version="1.1" x="0px" y="0px" viewBox="0 0 100 125" style="enable-background:new 0 0 100 100;" xml:space="preserve"><g><circle cx="50.7" cy="12.7" r="8"/><circle cx="74.7" cy="12.9" r="8"/><path d="M64.3,23.7c-1-0.5-4.4-1-13.5-1c-9.1,0-12.6,0.7-13.5,1c-1,0.3-2.2,1-2.2,2.2l1.6,30.8c0,1.2,1,2.2,2.2,2.2h2.1l1.4,35.3   h7.3V63.8c0-0.6,0.5-1.1,1.1-1.1c0.6,0,1.1,0.5,1.1,1.1v30.5h7.8L60.8,59h2c1.2,0,2.2-1,2.2-2.2l1.5-30.8   C66.5,24.7,65.3,24.2,64.3,23.7z"/><path d="M88.5,23.9c0,0-4.4-1-13.5-1c-1.7,0-3.3,0-4.7,0.1l-0.4,7c0,0-1.7,27.3-1.8,28.4c-0.1,1.1-0.6,2-1.1,2.2   c-0.4,0.2-1.3,0.1-1.5,0.2c-0.2,0.1,1.5,31.1,1.5,31.1h6.8V64c0-0.7,0.6-1.2,1.2-1.2c0.7,0,1.2,0.6,1.2,1.2v27.9h7.2L84.8,58h2.1   c1.2,0,2.2-1,2.2-2.2l1.6-29.7C90.7,24.9,89.7,23.9,88.5,23.9z"/><circle cx="27.1" cy="12.9" r="8"/><path d="M34.8,60.6c-0.4-0.2-1-1.1-1.1-2.2C33.7,57.3,32,30,32,30l-0.4-7c-1.4-0.1-3-0.1-4.7-0.1c-9.1,0-13.5,1-13.5,1   c-1.2,0-2.2,1-2.2,2.2l1.6,29.7c0,1.2,1,2.2,2.2,2.2H17l1.4,33.9h7.2V64c0-0.7,0.6-1.2,1.2-1.2c0.7,0,1.2,0.6,1.2,1.2v27.9h6.8   c0,0,1.7-30.9,1.5-31.1C36.1,60.7,35.3,60.8,34.8,60.6z"/></g><text x="0" y="115" fill="#000000" font-size="5px" font-weight="bold" font-family="'Helvetica Neue', Helvetica, Arial-Unicode, Arial, Sans-serif">Created by Ignat</text><text x="0" y="120" fill="#000000" font-size="5px" font-weight="bold" font-family="'Helvetica Neue', Helvetica, Arial-Unicode, Arial, Sans-serif">from the Noun Project</text></svg>